<svg width="48" height="48" viewBox="0 0 48 48" fill="none" xmlns="http://www.w3.org/2000/svg">
<rect width="48" height="48" fill="#323238"/>
<path d="M36 17.4595V31.3685C36 32.2725 35.268 33.0045 34.364 33.0045H30.545V23.7325L24 28.6425L17.455 23.7325V33.0055H13.636C13.4211 33.0055 13.2083 32.9632 13.0097 32.8809C12.8111 32.7986 12.6307 32.678 12.4788 32.526C12.3269 32.374 12.2064 32.1935 12.1242 31.9949C12.0421 31.7963 11.9999 31.5835 12 31.3685V17.4595C12 15.4365 14.309 14.2815 15.927 15.4955L17.455 16.6425L24 21.5505L30.545 16.6405L32.073 15.4955C33.69 14.2825 36 15.4365 36 17.4595Z" fill="white"/>
</svg>
