<svg width="48" height="48" viewBox="0 0 48 48" fill="none" xmlns="http://www.w3.org/2000/svg">
<rect width="48" height="48" fill="#323238"/>
<path d="M17.5866 19.7116H12.7686C12.5547 19.7116 12.3815 19.8853 12.3815 20.0996V35.612C12.3815 35.8263 12.5547 35.9999 12.7686 35.9999H17.5866C17.8004 35.9999 17.9737 35.8263 17.9737 35.612V20.0996C17.9737 19.8853 17.8004 19.7116 17.5866 19.7116Z" fill="white"/>
<path d="M15.1793 12C13.4262 12 12 13.4278 12 15.1828C12 16.9386 13.4262 18.367 15.1793 18.367C16.931 18.367 18.3561 16.9385 18.3561 15.1828C18.3561 13.4278 16.931 12 15.1793 12Z" fill="white"/>
<path d="M29.8416 19.326C27.9065 19.326 26.476 20.1598 25.6084 21.1071V20.0995C25.6084 19.8853 25.4351 19.7116 25.2213 19.7116H20.6072C20.3934 19.7116 20.2201 19.8853 20.2201 20.0995V35.612C20.2201 35.8263 20.3934 35.9999 20.6072 35.9999H25.4147C25.6285 35.9999 25.8018 35.8263 25.8018 35.612V27.9369C25.8018 25.3506 26.5028 24.343 28.3017 24.343C30.2608 24.343 30.4165 25.9583 30.4165 28.07V35.612C30.4165 35.8263 30.5898 36 30.8036 36H35.6129C35.8267 36 36 35.8263 36 35.612V27.1032C36 23.2575 35.2683 19.326 29.8416 19.326Z" fill="white"/>
</svg>
